<svg width="150" height="48" viewBox="0 0 150 48" fill="none" xmlns="http://www.w3.org/2000/svg">
<circle cx="24" cy="24" r="24" fill="url(#paint0_linear_2286_182)"/>
<path d="M61.4866 32.36C60.9586 32.36 60.3986 32.304 59.8066 32.192C59.2306 32.096 58.7986 31.968 58.5106 31.808V28.064C58.7506 28.176 59.0546 28.264 59.4226 28.328C59.8066 28.392 60.1906 28.424 60.5746 28.424C61.2786 28.424 61.7746 28.28 62.0626 27.992C62.3506 27.688 62.4946 27.192 62.4946 26.504V15.224H66.7426V26.984C66.7426 28.632 66.2946 29.944 65.3986 30.92C64.5026 31.88 63.1986 32.36 61.4866 32.36ZM73.1193 32.36C71.6793 32.36 70.5113 32.016 69.6153 31.328C68.7353 30.624 68.2953 29.648 68.2953 28.4C68.2953 27.104 68.7193 26.112 69.5673 25.424C70.4313 24.72 71.6633 24.368 73.2633 24.368C73.8873 24.368 74.5113 24.44 75.1353 24.584C75.7593 24.712 76.2953 24.888 76.7433 25.112V24.872C76.7433 23.64 75.7353 23.024 73.7193 23.024C72.3113 23.024 71.0233 23.296 69.8553 23.84V20.936C70.3673 20.696 71.0393 20.504 71.8713 20.36C72.7033 20.2 73.5673 20.12 74.4633 20.12C76.6073 20.12 78.2233 20.552 79.3113 21.416C80.4153 22.264 80.9673 23.456 80.9673 24.992V32H77.0073V31.016C76.5753 31.432 76.0313 31.76 75.3753 32C74.7193 32.24 73.9673 32.36 73.1193 32.36ZM74.3673 29.768C74.8633 29.768 75.3273 29.672 75.7593 29.48C76.1913 29.272 76.5193 29.008 76.7433 28.688V27.68C76.0553 27.216 75.2713 26.984 74.3913 26.984C73.8313 26.984 73.3993 27.104 73.0953 27.344C72.7913 27.584 72.6393 27.936 72.6393 28.4C72.6393 28.832 72.7833 29.168 73.0713 29.408C73.3753 29.648 73.8073 29.768 74.3673 29.768ZM85.2579 18.944C84.6179 18.944 84.0819 18.736 83.6499 18.32C83.2179 17.904 83.0019 17.376 83.0019 16.736C83.0019 16.112 83.2179 15.592 83.6499 15.176C84.0819 14.744 84.6179 14.528 85.2579 14.528C85.8819 14.528 86.4099 14.744 86.8419 15.176C87.2899 15.592 87.5139 16.112 87.5139 16.736C87.5139 17.36 87.2899 17.888 86.8419 18.32C86.4099 18.736 85.8819 18.944 85.2579 18.944ZM83.1459 20.48H87.3699V32H83.1459V20.48ZM89.6816 15.224H98.1776C99.7936 15.224 101.066 15.624 101.994 16.424C102.938 17.224 103.41 18.368 103.41 19.856C103.41 20.56 103.25 21.216 102.93 21.824C102.61 22.432 102.154 22.912 101.562 23.264C102.378 23.584 102.978 24.048 103.362 24.656C103.746 25.248 103.938 26.024 103.938 26.984C103.938 28.008 103.698 28.904 103.218 29.672C102.738 30.424 102.09 31 101.274 31.4C100.474 31.8 99.5776 32 98.5856 32H89.6816V15.224ZM97.2416 21.872C98.4896 21.872 99.1136 21.288 99.1136 20.12C99.1136 19.464 98.9536 19.016 98.6336 18.776C98.3136 18.52 97.8256 18.392 97.1696 18.392H93.9296V21.872H97.2416ZM97.5056 28.832C98.2256 28.832 98.7616 28.696 99.1136 28.424C99.4656 28.152 99.6416 27.672 99.6416 26.984C99.6416 26.296 99.4576 25.8 99.0896 25.496C98.7216 25.176 98.1616 25.016 97.4096 25.016H93.9296V28.832H97.5056ZM112.243 32.36C110.819 32.36 109.571 32.104 108.499 31.592C107.427 31.064 106.595 30.344 106.003 29.432C105.427 28.504 105.139 27.44 105.139 26.24C105.139 25.04 105.427 23.984 106.003 23.072C106.595 22.144 107.427 21.424 108.499 20.912C109.571 20.384 110.819 20.12 112.243 20.12C113.667 20.12 114.915 20.384 115.987 20.912C117.059 21.424 117.883 22.144 118.459 23.072C119.051 23.984 119.347 25.04 119.347 26.24C119.347 27.44 119.051 28.504 118.459 29.432C117.883 30.344 117.059 31.064 115.987 31.592C114.915 32.104 113.667 32.36 112.243 32.36ZM112.243 29.072C113.091 29.072 113.763 28.824 114.259 28.328C114.771 27.816 115.027 27.12 115.027 26.24C115.027 25.36 114.771 24.672 114.259 24.176C113.763 23.664 113.091 23.408 112.243 23.408C111.395 23.408 110.715 23.664 110.203 24.176C109.707 24.672 109.459 25.36 109.459 26.24C109.459 27.12 109.707 27.816 110.203 28.328C110.715 28.824 111.395 29.072 112.243 29.072ZM127.032 32.36C125.608 32.36 124.36 32.104 123.288 31.592C122.216 31.064 121.384 30.344 120.792 29.432C120.216 28.504 119.928 27.44 119.928 26.24C119.928 25.04 120.216 23.984 120.792 23.072C121.384 22.144 122.216 21.424 123.288 20.912C124.36 20.384 125.608 20.12 127.032 20.12C128.456 20.12 129.704 20.384 130.776 20.912C131.848 21.424 132.672 22.144 133.248 23.072C133.84 23.984 134.136 25.04 134.136 26.24C134.136 27.44 133.84 28.504 133.248 29.432C132.672 30.344 131.848 31.064 130.776 31.592C129.704 32.104 128.456 32.36 127.032 32.36ZM127.032 29.072C127.88 29.072 128.552 28.824 129.048 28.328C129.56 27.816 129.816 27.12 129.816 26.24C129.816 25.36 129.56 24.672 129.048 24.176C128.552 23.664 127.88 23.408 127.032 23.408C126.184 23.408 125.504 23.664 124.992 24.176C124.496 24.672 124.248 25.36 124.248 26.24C124.248 27.12 124.496 27.816 124.992 28.328C125.504 28.824 126.184 29.072 127.032 29.072ZM135.807 20.48H139.887V21.752C140.383 21.208 140.983 20.8 141.687 20.528C142.391 20.256 143.127 20.12 143.895 20.12C145.511 20.12 146.703 20.544 147.471 21.392C148.255 22.224 148.647 23.36 148.647 24.8V32H144.423V25.352C144.423 24.056 143.831 23.408 142.647 23.408C142.103 23.408 141.607 23.536 141.159 23.792C140.711 24.032 140.335 24.408 140.031 24.92V32H135.807V20.48Z" fill="url(#paint1_linear_2286_182)"/>
<defs>
<linearGradient id="paint0_linear_2286_182" x1="2.42862" y1="-5.39954e-05" x2="70.0132" y2="52.9165" gradientUnits="userSpaceOnUse">
<stop offset="0.268092" stop-color="#6CC164"/>
<stop offset="0.804019" stop-color="#5E8BFF"/>
</linearGradient>
<linearGradient id="paint1_linear_2286_182" x1="62.6548" y1="5.99996" x2="104.414" y2="89.5563" gradientUnits="userSpaceOnUse">
<stop offset="0.268092" stop-color="#6CC164"/>
<stop offset="0.804019" stop-color="#5E8BFF"/>
</linearGradient>
</defs>
</svg>
